<?xml version="1.0" encoding="UTF-8"?>
<svg xmlns="http://www.w3.org/2000/svg" width="256" height="256" viewBox="0 0 256 256">
  <defs>
    <linearGradient id="bg" x1="0" y1="0" x2="1" y2="1">
      <stop offset="0%" stop-color="#4b9bd5"/>
      <stop offset="100%" stop-color="#2c6aa0"/>
    </linearGradient>
  </defs>

  <!-- Background -->
  <rect x="24" y="24" width="208" height="208" rx="32" ry="32" fill="url(#bg)"/>

  <!-- Form sheet -->
  <rect x="64" y="56" width="92" height="120" rx="8" ry="8" fill="#ffffff" fill-opacity="0.95"/>
  <rect x="76" y="76" width="68" height="8" rx="4" fill="#cfd8dc"/>
  <rect x="76" y="96" width="68" height="8" rx="4" fill="#cfd8dc"/>
  <rect x="76" y="116" width="48" height="8" rx="4" fill="#cfd8dc"/>

  <!-- File stack -->
  <rect x="124" y="88" width="56" height="72" rx="6" ry="6" fill="#e3f2fd"/>
  <rect x="132" y="80" width="56" height="72" rx="6" ry="6" fill="#bbdefb"/>
  <rect x="140" y="72" width="56" height="72" rx="6" ry="6" fill="#ffffff"/>

  <!-- Upload arrow -->
  <path d="M168 148v-28h-10l18-18 18 18h-10v28z" fill="#4b9bd5"/>
</svg>
